<svg t="1681103142996" class="icon" viewBox="0 0 1024 1024" version="1.1" xmlns="http://www.w3.org/2000/svg" p-id="1227" width="16" height="16"><path d="M764.197547 1013.987556h-13.084445a529.180444 529.180444 0 0 1-255.829333-88.234667A1139.939556 1139.939556 0 0 1 40.855324 424.106667 448.682667 448.682667 0 0 1 1.715769 275.911111a171.804444 171.804444 0 0 1 53.646222-150.528l16.099556-15.758222a311.751111 311.751111 0 0 1 52.906666-44.373333 135.68 135.68 0 0 1 168.049778 6.997333A351.118222 351.118222 0 0 1 398.231324 212.195556a141.937778 141.937778 0 0 1-34.872888 164.010666c-9.045333 8.988444-17.408 18.602667-25.031112 28.842667 5.859556 10.865778 12.572444 21.276444 20.024889 31.118222a909.937778 909.937778 0 0 0 229.489778 225.735111c7.566222 5.290667 15.416889 10.126222 23.608889 14.506667 5.518222-4.266667 15.303111-13.767111 21.048889-19.342222 62.179556-60.871111 121.173333-69.176889 197.404444-27.306667 41.528889 22.016 78.506667 51.825778 108.828445 87.779556 44.657778 48.981333 47.900444 122.88 7.793778 175.559111a405.048889 405.048889 0 0 1-90.282667 94.094222 144.497778 144.497778 0 0 1-92.046222 26.794667z m-10.069334-75.207112a88.746667 88.746667 0 0 0 56.945778-10.808888 326.030222 326.030222 0 0 0 73.216-75.207112 63.431111 63.431111 0 0 0-3.015111-87.324444 285.184 285.184 0 0 0-86.755556-69.176889c-46.876444-25.088-70.200889-22.584889-108.600888 15.018667-50.176 50.176-75.264 56.718222-138.922667 13.824a984.405333 984.405333 0 0 1-248.604445-244.280889c-48.924444-67.697778-46.648889-95.573333 12.060445-156.273778a67.697778 67.697778 0 0 0 19.057778-82.261333 272.611556 272.611556 0 0 0-83.057778-110.136889 61.952 61.952 0 0 0-81.180445-2.730667c-14.620444 10.012444-28.103111 21.617778-40.163555 34.588445l-18.033778 17.351111c-24.007111 22.926222-35.100444 56.263111-29.582222 89.031111 3.811556 42.382222 14.848 83.854222 32.597333 122.595555 87.779556 193.137778 225.678222 346.168889 426.325334 468.536889a456.476444 456.476444 0 0 0 217.713777 76.970667v0.284444z" p-id="1228"></path></svg>